<?xml version="1.0" encoding="UTF-8"?>
<svg id="Layer_1" xmlns="http://www.w3.org/2000/svg" version="1.1" viewBox="0 0 288 288">
  <!-- Generator: Adobe Illustrator 29.8.3, SVG Export Plug-In . SVG Version: 2.1.1 Build 3)  -->
  <defs>
    <style>
      .st0 {
        fill: #8abaae;
      }

      .st1 {
        fill: #c8dca8;
      }
    </style>
  </defs>
  <path class="st0" d="M10.41,142.61c3.77-.94,5.85-3.7,5.85-9.34l.13-32.67c0-3.83-1.75-6.12-5.45-6.32-.2,0-.2-.27,0-.27,2.15.13,6.12.2,6.92.13l3.02-.13c.13,0,.27.07.34.2l26.22,36.91h.07l.07-27.09c0-5.71-1.88-9.28-5.71-9.61-.2,0-.2-.27,0-.27,3.23.4,7.73.47,11.43,0,.2,0,.2.27,0,.27-3.36.94-5.11,3.97-5.18,9.55l-.34,28.71.27,10.15c0,.4-.27.54-.54.2l-30.79-43.9h-.07l.13,34.08c0,5.71,1.88,9.21,5.71,9.55.2,0,.2.27,0,.27-3.43-.4-8.13-.54-12.1-.13-.2,0-.2-.27,0-.27Z"/>
  <path class="st0" d="M57.68,136.89c0-5.31,6.25-10.49,12.64-10.49,1.34,0,2.62.27,3.7.81.13-1.61.27-3.16.34-4.64.47-6.52-2.89-9.55-7.53-9.55-1.81,0-3.43.4-3.7,1.14.34,4.3-1.41,6.25-3.02,6.25-1.21,0-1.95-1.01-1.95-2.35,0-3.9,4.71-5.31,8.61-5.31,6.05,0,13.51,3.09,12.77,9.48-.47,3.9-.94,11.7-.94,15.4,0,2.69.67,4.64,2.15,4.64s2.49-1.01,2.89-2.89c.07-.27.34-.13.27.13-.27,2.15-2.08,4.37-4.77,4.37-3.36,0-5.18-2.15-5.51-5.38h-.07c-2.49,3.23-5.78,5.31-9.14,5.31-3.97,0-6.72-3.16-6.72-6.92ZM67.69,141.33c2.22,0,4.37-1.21,5.92-3.29-.07-3.09.13-6.86.4-10.55-1.08-.54-2.22-.67-3.16-.67-5.18,0-7.73,4.1-7.73,8.74,0,3.63,1.48,5.78,4.57,5.78Z"/>
  <path class="st0" d="M90.82,138.24c.13-8.67.07-15.26.47-23.93h-4.44c-.27,0-.27-.27,0-.27,6.19-.74,8.2-4.37,9.82-9.21.07-.2.27-.13.27,0l-.54,8.94h7.33c.34,0,.34.54,0,.54l-7.33-.27c-.27,7.93-.4,13.51-.54,21.45-.07,4.64,1.34,6.79,4.37,6.79,2.82,0,4.24-2.15,4.57-5.11,0-.2.27-.2.27,0-.2,3.9-2.62,6.72-7.4,6.72-4.23,0-6.92-1.95-6.86-5.65Z"/>
  <path class="st0" d="M111.4,138.84c-.07-5.78-.07-11.5,0-17.28.07-4.03-.81-7.53-3.7-7.53-.2,0-.2-.27,0-.27h1.88c1.48,0,5.92,0,6.99-1.08.13-.13.27,0,.2.2-.4,1.34-.27,3.36-.34,6.59-.07,5.85-.07,11.7,0,17.55.07,3.7,2.15,5.38,4.84,5.38,4.24,0,8-5.04,8-13.72v-7.13c0-4.03-.94-7.53-4.37-7.53-.2,0-.2-.27,0-.27h2.55c1.48,0,5.92,0,6.99-1.08.13-.13.27,0,.2.2-.4,1.34-.34,3.36-.34,6.59v15.6c0,4.03.94,7.53,4.37,7.53.2,0,.2.27,0,.27h-2.55c-1.48,0-5.65-.13-6.72.94-.13.13-.27,0-.2-.2.4-1.34.34-3.23.34-6.45v-5.98h-.07c-.67,8.87-5.65,12.71-10.96,12.71-4.1,0-7.06-1.88-7.13-5.04Z"/>
  <path class="st0" d="M143.2,142.61c3.36-.13,3.7-2.42,3.7-6.79v-14.25c0-4.03-.94-7.53-4.37-7.53-.2,0-.2-.27,0-.27h2.55c1.48,0,5.71,0,6.79-1.08.13-.13.27,0,.2.2-.4,1.34-.34,3.36-.34,6.59v5.98h.07c.54-8.87,4.44-12.71,8.74-12.71,2.82,0,4.24,1.95,4.24,4.03,0,1.75-1.08,2.89-2.35,2.89-1.55,0-2.82-1.68-2.49-4.91-.27-.34-.81-.54-1.34-.54-3.5,0-6.66,5.04-6.66,13.71v7.8c0,4.44.27,6.72,4.5,6.86.2,0,.2.27,0,.27-2.22-.13-4.44-.13-7.06-.13-2.22,0-4.3,0-6.19.13-.2,0-.2-.27,0-.27Z"/>
  <path class="st0" d="M199.35,142.61c3.36-.13,3.7-2.42,3.7-6.79v-14.25c0-4.03-.94-7.53-4.37-7.53-.2,0-.2-.27,0-.27h2.55c1.48,0,5.71,0,6.79-1.08.13-.13.27,0,.2.2-.4,1.34-.34,3.36-.34,6.59v5.98h.07c.54-8.87,4.44-12.71,8.74-12.71,2.82,0,4.24,1.95,4.24,4.03,0,1.75-1.08,2.89-2.35,2.89-1.55,0-2.82-1.68-2.49-4.91-.27-.34-.81-.54-1.34-.54-3.5,0-6.66,5.04-6.66,13.71v7.8c0,4.44.27,6.72,4.5,6.86.2,0,.2.27,0,.27-2.22-.13-4.44-.13-7.06-.13-2.22,0-4.3,0-6.18.13-.2,0-.2-.27,0-.27Z"/>
  <path class="st0" d="M253.27,113.77c-.81.13-2.08.2-3.29.2-2.09,0-4.1-.07-5.31-.2-.2,0-.2.27,0,.27,3.5.13,4.77,2.55,3.43,6.18l-6.52,17.48h-.07l-7.93-19.29c-1.14-2.76-.74-4.24,3.5-4.37.2,0,.2-.27,0-.27-1.82.13-4.3.2-6.52.2s-4.64-.07-6.25-.2c-.2,0-.2.27,0,.27,1.88.13,3.03,2.82,3.97,5.04l10.69,25.28-.16.39c.07.04.15.08.22.13l.69-1.8,9.14-22.59c1.48-3.7,2.82-6.32,4.44-6.45.2,0,.2-.27,0-.27Z"/>
  <path class="st0" d="M240.33,135.91l-9.28,24.86s2.78,0,3.4,2.15l10.2-25.17-4.32-1.85Z"/>
  <g>
    <path class="st1" d="M261.19,84.51c-.72.61-1.46,1.24-2.24,1.9-16.16,13.75-19.31,55.51-19.31,55.51,37.98-23.17,38.1-71.17,38.1-71.17,0,0-1.99,1.44-13.08,10.82l-2.72,20.39-.74-17.45Z"/>
    <path class="st0" d="M277.84,70.79c-11.78,24.19-23.59,48.5-38.07,71.2,0,0-.23-.15-.23-.15,10.5-17.24,19.54-35.32,28.89-53.19,0,0,9.24-17.95,9.24-17.95l.18.09h0Z"/>
  </g>
  <path class="st0" d="M231.05,161.12s2.84.29,3.03,2.01l-1.99,1.72s-.78,1.02-.95-.27-.1-3.47-.1-3.47Z"/>
  <path class="st0" d="M169.61,129.4c0-7.75,5.67-15.69,13.23-15.69,4.28,0,8.7,2.9,8.7,7.18,0,1.51-.76,2.65-2.39,2.65h-14.37c-.06.82-.13,1.7-.13,2.58,0,8.95,4.6,13.92,10.65,13.92,3.46,0,6.3-1.64,6.99-5.61.06-.19.25-.13.25.06-.44,4.85-4.79,8.32-10.58,8.32-7.75,0-12.35-6.17-12.35-13.42ZM174.78,123.35c3.4,0,6.74,0,10.08-.25,1.95-.13,2.58-1.01,2.58-2.33,0-3.28-1.32-6.8-4.98-6.8-4.47,0-7.06,3.84-7.69,9.39Z"/>
</svg>